<svg width="42" height="28" viewBox="0 0 42 28" fill="none" xmlns="http://www.w3.org/2000/svg">
<path d="M2.38 27.62C1.72667 27.62 1.16667 27.3867 0.7 26.92C0.326667 26.4533 0.14 25.8933 0.14 25.24C0.14 24.5867 0.28 23.84 0.56 23L7.98 3.81999C8.44667 2.69999 8.96 1.90666 9.52 1.43999C10.08 0.879994 10.92 0.599995 12.04 0.599995H16.66C17.4067 0.599995 18.0133 0.879994 18.48 1.43999C18.76 1.81333 18.9 2.28 18.9 2.84C18.9 3.12 18.8533 3.39999 18.76 3.68L15.68 23.56C15.3067 26.2667 14 27.62 11.76 27.62H2.38ZM24.78 27.62C24.1267 27.62 23.5667 27.3867 23.1 26.92C22.7267 26.4533 22.54 25.8933 22.54 25.24C22.54 24.3067 22.68 23.56 22.96 23L30.38 3.81999C30.8467 2.69999 31.36 1.90666 31.92 1.43999C32.48 0.879994 33.32 0.599995 34.44 0.599995H39.06C39.8067 0.599995 40.4133 0.879994 40.88 1.43999C41.16 1.81333 41.3 2.28 41.3 2.84C41.3 3.12 41.2533 3.39999 41.16 3.68L38.08 23.56C37.7067 26.2667 36.4 27.62 34.16 27.62H24.78Z" fill="#362A43"/>
</svg>
