<svg width="43" height="28" viewBox="0 0 43 28" fill="none" xmlns="http://www.w3.org/2000/svg">
<path d="M3.22 27.62C2.47333 27.62 1.86667 27.34 1.4 26.78C1.02667 26.22 0.886667 25.52 0.980001 24.68L4.2 4.65999C4.57333 1.95333 5.88 0.599995 8.12 0.599995H17.5C18.1533 0.599995 18.6667 0.833328 19.04 1.29999C19.5067 1.76666 19.74 2.32666 19.74 2.98C19.74 3.72666 19.5533 4.47333 19.18 5.21999L11.9 24.4C11.4333 25.52 10.92 26.36 10.36 26.92C9.8 27.3867 8.96 27.62 7.84 27.62H3.22ZM25.62 27.62C24.78 27.62 24.1733 27.34 23.8 26.78C23.4267 26.4067 23.24 25.94 23.24 25.38C23.24 25.1933 23.2867 24.96 23.38 24.68L26.6 4.65999C26.9733 1.95333 28.28 0.599995 30.52 0.599995H39.76C40.4133 0.599995 40.9733 0.833328 41.44 1.29999C41.9067 1.76666 42.14 2.32666 42.14 2.98C42.14 3.72666 41.9533 4.47333 41.58 5.21999L34.3 24.4C33.8333 25.4267 33.2733 26.22 32.62 26.78C32.06 27.34 31.22 27.62 30.1 27.62H25.62Z" fill="#362A43"/>
</svg>
